HIERARCHY
ROOT Hips
{
	OFFSET 0.00000 0.00000 0.00000
	CHANNELS 6 Xposition Yposition Zposition Zrotation Yrotation Xrotation 
	JOINT LHipJoint
	{
		OFFSET 0 0 0
		CHANNELS 3 Zrotation Yrotation Xrotation
		JOINT LeftUpLeg
		{
			OFFSET 1.51378 -1.89840 0.47569
			CHANNELS 3 Zrotation Yrotation Xrotation
			JOINT LeftLeg
			{
				OFFSET 2.53380 -6.96157 0.00000
				CHANNELS 3 Zrotation Yrotation Xrotation
				JOINT LeftFoot
				{
					OFFSET 2.74874 -7.55212 0.00000
					CHANNELS 3 Zrotation Yrotation Xrotation
					JOINT LeftToeBase
					{
						OFFSET 0.18263 -0.50178 1.99677
						CHANNELS 3 Zrotation Yrotation Xrotation
						End Site
						{
							OFFSET 0.00000 -0.00000 1.03711
						}
					}
				}
			}
		}
	}
	JOINT RHipJoint
	{
		OFFSET 0 0 0
		CHANNELS 3 Zrotation Yrotation Xrotation
		JOINT RightUpLeg
		{
			OFFSET -1.43037 -1.89840 0.47569
			CHANNELS 3 Zrotation Yrotation Xrotation
			JOINT RightLeg
			{
				OFFSET -2.69849 -7.41406 0.00000
				CHANNELS 3 Zrotation Yrotation Xrotation
				JOINT RightFoot
				{
					OFFSET -2.69369 -7.40087 0.00000
					CHANNELS 3 Zrotation Yrotation Xrotation
					JOINT RightToeBase
					{
						OFFSET -0.28932 -0.79491 2.04975
						CHANNELS 3 Zrotation Yrotation Xrotation
						End Site
						{
							OFFSET 0.00009 0.00010 1.09536
						}
					}
				}
			}
		}
	}
	JOINT LowerBack
	{
		OFFSET 0 0 0
		CHANNELS 3 Zrotation Yrotation Xrotation
		JOINT Spine
		{
			OFFSET 0.01912 1.94784 -0.02419
			CHANNELS 3 Zrotation Yrotation Xrotation
			JOINT Spine1
			{
				OFFSET 0.07565 1.94258 0.01909
				CHANNELS 3 Zrotation Yrotation Xrotation
				JOINT Neck
				{
					OFFSET 0 0 0
					CHANNELS 3 Zrotation Yrotation Xrotation
					JOINT Neck1
					{
						OFFSET -0.07010 1.86195 0.18976
						CHANNELS 3 Zrotation Yrotation Xrotation
						JOINT Head
						{
							OFFSET 0.02284 1.86595 -0.31497
							CHANNELS 3 Zrotation Yrotation Xrotation
							End Site
							{
								OFFSET 0.01200 1.90122 -0.12838
							}
						}
					}
				}
				JOINT LeftShoulder
				{
					OFFSET 0 0 0
					CHANNELS 3 Zrotation Yrotation Xrotation
					JOINT LeftArm
					{
						OFFSET 3.39189 0.96331 -0.10437
						CHANNELS 3 Zrotation Yrotation Xrotation
						JOINT LeftForeArm
						{
							OFFSET 5.14845 -0.00000 0.00000
							CHANNELS 3 Zrotation Yrotation Xrotation
							JOINT LeftHand
							{
								OFFSET 3.43674 -0.00000 -0.00000
								CHANNELS 3 Zrotation Yrotation Xrotation
								JOINT LeftFingerBase
								{
									OFFSET 0 0 0
									CHANNELS 3 Zrotation Yrotation Xrotation
									JOINT LeftHandIndex1
									{
										OFFSET 0.58871 -0.00000 0.00000
										CHANNELS 3 Zrotation Yrotation Xrotation
										End Site
										{
											OFFSET 0.47463 -0.00000 0.00000
										}
									}
								}
								JOINT LThumb
								{
									OFFSET 0 0 0
									CHANNELS 3 Zrotation Yrotation Xrotation
									End Site
									{
										OFFSET 0.48188 -0.00000 0.48188
									}
								}
							}
						}
					}
				}
				JOINT RightShoulder
				{
					OFFSET 0 0 0
					CHANNELS 3 Zrotation Yrotation Xrotation
					JOINT RightArm
					{
						OFFSET -3.34934 1.18831 -0.19928
						CHANNELS 3 Zrotation Yrotation Xrotation
						JOINT RightForeArm
						{
							OFFSET -5.42185 -0.00000 0.00000
							CHANNELS 3 Zrotation Yrotation Xrotation
							JOINT RightHand
							{
								OFFSET -3.51317 -0.00000 -0.00000
								CHANNELS 3 Zrotation Yrotation Xrotation
								JOINT RightFingerBase
								{
									OFFSET 0 0 0
									CHANNELS 3 Zrotation Yrotation Xrotation
									JOINT RightHandIndex1
									{
										OFFSET -0.66319 -0.00000 0.00000
										CHANNELS 3 Zrotation Yrotation Xrotation
										End Site
										{
											OFFSET -0.53468 -0.00000 0.00000
										}
									}
								}
								JOINT RThumb
								{
									OFFSET 0 0 0
									CHANNELS 3 Zrotation Yrotation Xrotation
									End Site
									{
										OFFSET -0.54284 -0.00000 0.54284
									}
								}
							}
						}
					}
				}
			}
		}
	}
}
MOTION
Frames: 6
Frame Time: .0083333
-12.8812 17.8321 -13.9754 0 0 0 0 0 0 -21 0 0 0 0 0 0 0 0 0 0 0 0 0 0 21 0 0 0 0 0 0 0 0 0 0 0 0 0 0 0 0 0 0 0 0 0 0 -16 0 0 21 0 0 11 0 0 0 -8 0 0 0 0 0 0 0 0 0 0 0 0 0 0 0 0 0 0 0 0 8 0 0 0 0 0 0 0 0 0 0 0 0 0 0 0 0 0
-12.8812 17.8321 -13.9754 -2.9943 43.5058 4.1545 0.0000 0.0000 0.0000 -19.9028 -7.3989 -12.9568 2.0439 8.9568 25.6604 0.9599 2.5267 -19.5819 0.0000 0.0393 0.1079 0.0000 0.0000 0.0000 25.4916 10.0730 -15.4724 -3.5091 -11.4768 33.9053 -1.7757 -3.1525 -26.4690 -0.0015 -0.2537 0.6969 -0.9112 -0.0631 -2.9848 3.3423 -0.0680 -0.9284 3.9494 -0.0238 0.7259 -4.1826 -2.2806 -16.4699 1.0903 -2.2033 23.5053 0.7971 -1.2109 10.3006 -0.0000 0.0000 0.0000 -92.8190 2.9641 16.7572 15.3207 -24.5910 -3.3583 -0.0000 -0.0000 0.4547 19.8529 24.1473 8.4022 -7.1250 0.0000 -0.0000 -10.1962 55.1739 -2.5666 -0.0000 0.0000 0.0000 86.6476 0.4768 19.8762 -13.2978 21.7220 -2.5625 0.0000 0.0000 6.8196 -25.5076 13.1806 -6.2092 7.1250 -0.0000 -0.0000 1.2579 -15.4357 0.8779
-12.8829 17.8326 -13.9754 -2.8695 43.5487 4.2424 0.0000 0.0000 0.0000 -19.9951 -7.3672 -12.9571 2.0361 8.9409 25.6105 0.9597 2.4247 -19.5305 0.0005 0.1494 0.4104 0.0000 0.0000 0.0000 25.4018 10.1579 -15.4635 -3.5159 -11.4867 33.9394 -1.7779 -3.2318 -26.5204 -0.0032 -0.3632 0.9979 -0.9907 -0.0581 -2.9808 3.3002 -0.0590 -0.9346 3.9510 -0.0193 0.7166 -4.1345 -2.2601 -16.4172 1.0595 -2.1826 23.4243 0.7813 -1.2007 10.2595 0.0000 -0.0000 0.0000 -92.7878 2.9310 16.6430 15.2523 -24.4964 -3.3299 -0.0000 -0.0000 0.5330 19.7619 23.8232 8.2569 -7.1250 0.0000 -0.0000 -10.1495 54.8272 -2.4688 0.0000 -0.0000 0.0000 86.6622 0.4399 19.8472 -13.3097 21.7393 -2.5669 0.0000 0.0000 6.7961 -25.5653 13.2342 -6.2499 7.1250 -0.0000 -0.0000 1.2220 -15.3701 0.8546
-12.8855 17.8324 -13.9759 -2.8669 43.5741 4.2451 0.0000 0.0000 0.0000 -19.9889 -7.3630 -12.9661 2.0339 8.9364 25.5964 0.9542 2.4244 -19.4774 0.0002 0.0826 0.2270 0.0000 0.0000 0.0000 25.4001 10.1879 -15.4643 -3.5203 -11.4931 33.9615 -1.7928 -3.1389 -26.5827 -0.0048 -0.4473 1.2290 -0.9846 -0.0682 -2.9696 3.2981 -0.0730 -0.9176 3.9449 -0.0267 0.7288 -4.0639 -2.2405 -16.4772 0.9153 -2.1352 23.3830 0.7243 -1.1898 10.2522 0.0000 0.0000 0.0000 -92.7790 2.8952 16.7731 15.2866 -24.5438 -3.3441 -0.0000 -0.0000 0.4731 19.8158 24.2704 8.4250 -7.1250 0.0000 -0.0000 -10.2886 55.2912 -2.6197 0.0000 0.0000 0.0000 86.6913 0.5099 19.7691 -13.2655 21.6749 -2.5505 0.0000 0.0000 6.7742 -25.5218 13.3210 -6.2776 7.1250 -0.0000 -0.0000 1.2580 -15.2803 0.8822
-12.8856 17.8328 -13.9772 -2.8045 43.5452 4.2984 0.0000 0.0000 0.0000 -20.0463 -7.4397 -12.9434 2.0320 8.9324 25.5841 0.9493 2.5255 -19.4805 0.0002 0.1015 0.2789 0.0000 0.0000 0.0000 25.3414 10.2133 -15.4873 -3.5235 -11.4979 33.9779 -1.7981 -3.0867 -26.5959 -0.0046 -0.4393 1.2070 -1.0188 -0.0597 -2.9653 3.2825 -0.0605 -0.9227 3.9486 -0.0204 0.7203 -4.0486 -2.2500 -16.4359 0.7786 -2.1202 23.2564 0.6756 -1.1976 10.1968 0.0000 -0.0000 0.0000 -92.7362 2.9407 17.0524 15.3646 -24.6515 -3.3765 -0.0000 -0.0000 0.3051 19.9421 24.7113 8.6248 -7.1250 0.0000 -0.0000 -10.3553 55.7634 -2.7562 0.0000 -0.0000 0.0000 86.6907 0.4655 19.8315 -13.2971 21.7209 -2.5622 0.0000 0.0000 6.7071 -25.3441 13.0859 -6.1209 7.1250 -0.0000 -0.0000 1.3636 -15.5585 0.9482
-12.8850 17.8328 -13.9772 -2.8855 43.5268 4.2580 0.0000 0.0000 0.0000 -19.9796 -7.3775 -12.9928 2.0358 8.9402 25.6086 0.9623 2.4329 -19.5592 0.0005 0.1472 0.4045 0.0000 0.0000 0.0000 25.3980 10.1672 -15.5137 -3.5220 -11.4956 33.9701 -1.7949 -3.0686 -26.5653 -0.0056 -0.4834 1.3283 -0.9769 -0.0684 -3.0009 3.3346 -0.0737 -0.9153 3.9785 -0.0272 0.7489 -4.1166 -2.2563 -16.4249 0.7186 -2.0962 23.1741 0.6691 -1.1996 10.1650 -0.0000 -0.0000 0.0000 -92.8309 2.9186 16.9368 15.3660 -24.6534 -3.3771 -0.0000 -0.0000 0.3518 19.9787 24.7666 8.6596 -7.1250 0.0000 -0.0000 -10.3422 55.8268 -2.7686 -0.0000 -0.0000 0.0000 86.5977 0.4517 20.0190 -13.3178 21.7511 -2.5699 0.0000 0.0000 6.5193 -25.5693 12.9220 -6.1072 7.1250 -0.0000 -0.0000 1.1975 -15.7116 0.8287
